<svg xmlns="http://www.w3.org/2000/svg" viewBox="0 0 144 144">
  <path
    fill="currentColor"
    d="M72.87,137.44A65.44,65.44,0,1,1,138.31,72,65.52,65.52,0,0,1,72.87,137.44Zm0-126.38A60.94,60.94,0,1,0,133.81,72,61,61,0,0,0,72.87,11.06Z"
  />
  <path
    fill="currentColor"
    d="M72.92,114.94a13.06,13.06,0,0,1-13-13V39.3a2.25,2.25,0,1,1,4.5,0v62.6a8.54,8.54,0,1,0,17.08,0V39.3a2.25,2.25,0,0,1,4.5,0v62.6A13.06,13.06,0,0,1,72.92,114.94Z"
  />
  <path
    fill="currentColor"
    d="M89.9,33.56H55.84a2.25,2.25,0,1,1,0-4.5H89.9a2.25,2.25,0,0,1,0,4.5Z"
  />
  <path
    fill="currentColor"
    d="M77,103a2.25,2.25,0,0,1-2.25-2.25V66.67a2.25,2.25,0,1,1,4.5,0v34.06A2.25,2.25,0,0,1,77,103Z"
  />
</svg>
