<svg xmlns="http://www.w3.org/2000/svg" viewBox="0 0 144 144">
  <path
    fill="currentColor"
    d="M72.14,137.44A65.44,65.44,0,1,1,137.58,72,65.51,65.51,0,0,1,72.14,137.44Zm0-126.38A60.94,60.94,0,1,0,133.08,72,61,61,0,0,0,72.14,11.06Z"
  />
  <path
    fill="currentColor"
    d="M75.6,88.8c6.14-6.53,17.38-20,17.38-31,0-8.5-3.49-13.7-6.42-16.57a20,20,0,0,0-13.88-5.7c-10.05,0-20.74,7.81-20.74,22.27,0,9.36,7.57,21.15,16.65,31C58.86,98.37,50.48,103.44,48,103.44v5c5.41,0,15.84-8,24.11-16,9.33,9.25,19.41,16,24.27,16v-5C93,103.44,84.11,97.22,75.6,88.8Zm-18.66-31c0-8.37,5.52-17.27,15.74-17.27,7.6,0,15.3,5.93,15.3,17.27,0,6.63-5.9,16.78-15.86,27.38C63.93,76.38,56.94,66,56.94,57.83Z"
  />
</svg>
