<svg xmlns="http://www.w3.org/2000/svg" viewBox="0 0 144 144">
  <path
    fill="currentColor"
    d="M93.4,110a2.24,2.24,0,0,1-2.24-2.25c0-7-7.7-16.59-14.91-25a2.25,2.25,0,1,1,3.42-2.92c9.87,11.53,16,20.23,16,27.94A2.25,2.25,0,0,1,93.4,110Z"
  />
  <path
    fill="currentColor"
    d="M67.17,71a2.26,2.26,0,0,1-1.72-.8c-8.18-9.75-15.76-20.06-15.76-29.34a2.25,2.25,0,0,1,4.5,0c0,7.87,7.44,17.78,14.71,26.45A2.24,2.24,0,0,1,67.17,71Z"
  />
  <path
    fill="currentColor"
    d="M52.33,110a2.25,2.25,0,0,1-2.25-2.25c0-9.59,9.89-21,20.36-33s21.11-24.27,21.11-33.9a2.25,2.25,0,1,1,4.49,0c0,11.31-11.29,24.29-22.21,36.85-9.46,10.88-19.25,22.13-19.25,30A2.25,2.25,0,0,1,52.33,110Z"
  />
  <path
    fill="currentColor"
    d="M84.93,47.4H61.2a2.25,2.25,0,0,1,0-4.5H84.93a2.25,2.25,0,0,1,0,4.5Z"
  />
  <path
    fill="currentColor"
    d="M77.37,59.6H68.76a2.25,2.25,0,1,1,0-4.49h8.61a2.25,2.25,0,1,1,0,4.49Z"
  />
  <path
    fill="currentColor"
    d="M84.46,107.18H60.73a2.25,2.25,0,1,1,0-4.5H84.46a2.25,2.25,0,0,1,0,4.5Z"
  />
  <path
    fill="currentColor"
    d="M76.9,95H68.29a2.25,2.25,0,1,1,0-4.5H76.9a2.25,2.25,0,0,1,0,4.5Z"
  />
  <path
    fill="currentColor"
    d="M72.87,138.28a65.45,65.45,0,1,1,65.44-65.44A65.52,65.52,0,0,1,72.87,138.28Zm0-126.39a60.95,60.95,0,1,0,60.94,61A61,61,0,0,0,72.87,11.89Z"
  />
</svg>
