<svg xmlns="http://www.w3.org/2000/svg" viewBox="0 0 144 144">
  <path
    fill="currentColor"
    d="M72.87,136.09a65.44,65.44,0,1,1,65.44-65.44A65.51,65.51,0,0,1,72.87,136.09Zm0-126.38a60.95,60.95,0,1,0,60.94,60.94A61,61,0,0,0,72.87,9.71Z"
  />
  <path
    fill="currentColor"
    d="M54.7,43.91a41.12,41.12,0,0,1,4-3.36,51.25,51.25,0,0,1,6.15-3.42,19.62,19.62,0,0,1,6.07-1.52,22.67,22.67,0,0,1,9.62,1,31.35,31.35,0,0,1,9,4.59c.63.44,1.23.92,1.87,1.34a1.61,1.61,0,0,1,.63,1.9c-.12.5-.53.91-1.15.57a5.52,5.52,0,0,1-1.33-.89A25.37,25.37,0,0,0,78,37.29a21,21,0,0,0-8.17-.47c-4.91.59-9.09,2.82-13,5.67-.69.5-1.29,1.11-1.92,1.67Z"
  />
  <path
    fill="currentColor"
    d="M91.31,46.47a2.27,2.27,0,0,1-1.07-.29,6.81,6.81,0,0,1-1.65-1.13,24.06,24.06,0,0,0-10.94-6.46A19.77,19.77,0,0,0,70,38.16c-4,.49-8,2.21-12.36,5.42a15.05,15.05,0,0,0-1.21,1L54.77,46.1,53,44l.87-1.12c.4-.34.79-.69,1.18-1a24.2,24.2,0,0,1,3-2.41,52.78,52.78,0,0,1,6.31-3.51,21.17,21.17,0,0,1,6.48-1.64A24.07,24.07,0,0,1,81,35.3a32.71,32.71,0,0,1,9.36,4.78l.68.5c.37.27.75.55,1.14.81a3,3,0,0,1,1.21,3.34,2.29,2.29,0,0,1-1.23,1.57A2.06,2.06,0,0,1,91.31,46.47Z"
  />
  <path
    fill="currentColor"
    d="M72.67,85.37A20.39,20.39,0,1,1,93.06,65,20.41,20.41,0,0,1,72.67,85.37Zm0-36.27A15.89,15.89,0,1,0,88.56,65,15.91,15.91,0,0,0,72.67,49.1Z"
  />
  <path
    fill="currentColor"
    d="M54.53,107.2A2.25,2.25,0,0,1,52.28,105V65a2.25,2.25,0,0,1,4.5,0v40A2.25,2.25,0,0,1,54.53,107.2Z"
  />
  <circle fill="currentColor" cx="77.53" cy="64.6" r="4.13" />
</svg>
