<svg xmlns="http://www.w3.org/2000/svg" viewBox="0 0 144 144">
  <path
    fill="currentColor"
    d="M72.14,73.34A20.58,20.58,0,1,1,92.72,52.76,20.61,20.61,0,0,1,72.14,73.34Zm0-36.16A15.58,15.58,0,1,0,87.72,52.76,15.6,15.6,0,0,0,72.14,37.18Z"
  />
  <path
    fill="currentColor"
    d="M40.71,105a33.92,33.92,0,0,1,62.85,0h5.35a38.93,38.93,0,0,0-73.54,0Z"
  />
  <path
    fill="currentColor"
    d="M72.14,137.44A65.44,65.44,0,1,1,137.58,72,65.51,65.51,0,0,1,72.14,137.44Zm0-126.38A60.94,60.94,0,1,0,133.08,72,61,61,0,0,0,72.14,11.06Z"
  />
</svg>
