<svg xmlns="http://www.w3.org/2000/svg" viewBox="0 0 144 144">
  <path
    fill="currentColor"
    d="M72.14,137.44A65.44,65.44,0,1,1,137.58,72,65.51,65.51,0,0,1,72.14,137.44Zm0-126.38A60.94,60.94,0,1,0,133.08,72,61,61,0,0,0,72.14,11.06Z"
  />
  <path
    fill="currentColor"
    d="M109,96.71a7.58,7.58,0,0,0-4,1.14L85.83,81.79A16.82,16.82,0,0,0,74.14,55.27V35.74a8.13,8.13,0,1,0-4,0V55.27a16.82,16.82,0,0,0-11.33,27L41.05,98.2a8.22,8.22,0,1,0,2.29,3.31L61.61,85.14a16.77,16.77,0,0,0,21.53-.39l19.17,16a7.51,7.51,0,0,0-.89,3.56A7.62,7.62,0,1,0,109,96.71Zm-36.9-71A2.13,2.13,0,1,1,70,27.87,2.13,2.13,0,0,1,72.14,25.74Zm-36.4,80.73a2.14,2.14,0,1,1,2.13-2.14A2.14,2.14,0,0,1,35.74,106.47Zm36.4-23.61A10.86,10.86,0,1,1,83,72,10.88,10.88,0,0,1,72.14,82.86ZM109,106a1.63,1.63,0,1,1,1.63-1.63A1.63,1.63,0,0,1,109,106Z"
  />
</svg>
