<svg xmlns="http://www.w3.org/2000/svg" viewBox="0 0 144 144">
  <path
    fill="currentColor"
    d="M72.14,137.44A65.44,65.44,0,1,1,137.58,72,65.51,65.51,0,0,1,72.14,137.44Zm0-126.38A60.94,60.94,0,1,0,133.08,72,61,61,0,0,0,72.14,11.06Z"
  />
  <path
    fill="currentColor"
    d="M95.07,88.8c6.14-6.53,17.38-20,17.38-31,0-8.5-3.5-13.7-6.43-16.57a20,20,0,0,0-13.88-5.7c-10,0-20.73,7.81-20.73,22.27,0,9.36,7.56,21.15,16.65,31C78.32,98.37,70,103.44,67.41,103.44v5c5.41,0,15.84-8,24.11-16,9.33,9.25,19.41,16,24.27,16v-5C112.49,103.44,103.58,97.22,95.07,88.8Zm-18.66-31c0-8.37,5.51-17.27,15.73-17.27,7.61,0,15.31,5.93,15.31,17.27,0,6.63-5.9,16.78-15.86,27.38C83.4,76.38,76.41,66,76.41,57.83Z"
  />
  <rect
    fill="currentColor"
    x="22.39"
    y="79.82"
    width="33.66"
    height="4.17"
    rx="2.09"
  />
  <path
    fill="currentColor"
    d="M23.12,67a2.07,2.07,0,0,1-.94-1.88c.16-2.79,4.63-4.24,6.85-4.84a10.38,10.38,0,0,1,6.07.33c2,.68,4,1.54,6,2.36a16.13,16.13,0,0,0,6.75,1.28,9.85,9.85,0,0,0,5-1.48,13.71,13.71,0,0,0,1.3-.84.94.94,0,0,1,1.07-.15,2.28,2.28,0,0,1,.76.69,1.59,1.59,0,0,1,.27.47,1.43,1.43,0,0,1,0,.65,3.61,3.61,0,0,1-.33.88,2.93,2.93,0,0,1-.9,1.1c-.46.3-.92.6-1.4.88a11.61,11.61,0,0,1-3,1.3A15.42,15.42,0,0,1,40.71,67c-1.53-.65-3-1.38-4.56-2a11.26,11.26,0,0,0-11.83,1.93,1.2,1.2,0,0,1-.34.25.91.91,0,0,1-.65,0A1,1,0,0,1,23.12,67Z"
  />
  <rect
    fill="currentColor"
    x="22.33"
    y="71.18"
    width="33.69"
    height="3.99"
    rx="1.99"
  />
</svg>
