<svg xmlns="http://www.w3.org/2000/svg" viewBox="0 0 144 144">
  <path
    fill="currentColor"
    d="M72.14,137.44A65.44,65.44,0,1,1,137.58,72,65.51,65.51,0,0,1,72.14,137.44Zm0-126.38A60.94,60.94,0,1,0,133.08,72,61,61,0,0,0,72.14,11.06Z"
  />
  <path
    fill="currentColor"
    d="M83.5,109.05c-7.79,0-14.14-8.57-14.14-19.11v-32c0-7.78-4.28-14.35-9.36-14.35H58c-5.08,0-9.36,6.57-9.36,14.35V99.85H43.86V57.9c0-10.54,6.35-19.12,14.14-19.12h2c7.79,0,14.14,8.58,14.14,19.12v32c0,7.77,4.28,14.34,9.36,14.34s9.36-6.57,9.36-14.34V59.12h4.78V89.94C97.64,100.48,91.29,109.05,83.5,109.05Z"
  />
  <path
    fill="currentColor"
    d="M53.43,99.49a7.18,7.18,0,1,1-7.18-7.18A7.19,7.19,0,0,1,53.43,99.49Z"
  />
  <polygon
    fill="currentColor"
    points="106.39 67.56 95.25 62.83 84.11 67.56 95.25 41.17 106.39 67.56"
  />
</svg>
