<svg xmlns="http://www.w3.org/2000/svg" viewBox="0 0 144 144">
  <path
    fill="currentColor"
    d="M72.87,138a65.45,65.45,0,1,1,65.44-65.44A65.51,65.51,0,0,1,72.87,138Zm0-126.39a60.95,60.95,0,1,0,60.94,61A61,61,0,0,0,72.87,11.63Z"
  />
  <path
    fill="currentColor"
    d="M51.4,89.19l2.9.22c5.39.43,10.89.87,16.4.87a80.07,80.07,0,0,0,10.37-.63c2.37-.31,4.73-.75,7.09-1.2a66.55,66.55,0,0,1,12.78-1.54c.91,0,1.83.07,2.75.12a25.62,25.62,0,0,0,8.47-.47,11.23,11.23,0,0,0,1.34-.47c3.71-1.56,7-5.41,6.19-9.75a12.05,12.05,0,0,0-3-5.35l-7.87-9.48c-2.86-3.45-6-6.85-10.21-8,.15-.4.31-.79.43-1.19a10.72,10.72,0,0,0,.5-4.07c-.13-4.08-4.88-6.12-8.39-5.61a8.14,8.14,0,0,0-3.82,1.52,5.22,5.22,0,0,0-2,3.47,11.93,11.93,0,0,0,.5,3.7,38.09,38.09,0,0,1-4.46-4c-1.08-1.06-2.17-2.13-3.29-3.08-8.14-6.91-20.35-8.87-31.1-5A42,42,0,0,0,28.23,53.69a1.32,1.32,0,0,0-.12.2,31.34,31.34,0,0,0-3.54,6.38A21.44,21.44,0,0,0,23.11,71a36,36,0,0,0,.81,7.32C26.9,92.05,37.77,105.15,47,111c10.68,6.79,22.21,9.15,33.48,9.15,2.63,0,19.79.37,17.29-4.55-1.37-2.7-8.55-.32-10.92-.14a73.94,73.94,0,0,1-12.45,0,55.45,55.45,0,0,1-25-8.26c-5.85-3.72-14.94-12.75-19.32-24.08a24.39,24.39,0,0,0,7.22,3.79C41.91,88.46,46.73,88.83,51.4,89.19ZM90.45,46.7s-.07.09-.13.14C90.41,46.7,90.47,46.6,90.45,46.7Zm-2.36,2.11a2.8,2.8,0,0,1,.53-2,5,5,0,0,1,4.22-1.33,6,6,0,0,1,4.45,4.33,7.13,7.13,0,0,1-.06,2.48.46.46,0,0,1-.13.32c-.84.74-3,.41-4,.49a4.51,4.51,0,0,1-2.7-.23A6,6,0,0,1,88.5,51a2.65,2.65,0,0,1-.44-.85,2.55,2.55,0,0,1,0-.73C88.07,49.24,88.08,49,88.09,48.81Zm-59,26.37a14.68,14.68,0,0,1-1.44-4.42A26.36,26.36,0,0,1,31.9,56.31,37.46,37.46,0,0,1,48.44,43.49a29.06,29.06,0,0,1,9.78-1.7,26.14,26.14,0,0,1,16.89,5.9c1,.89,2,1.88,3,2.87,3.27,3.21,6.64,6.53,11.52,7.08a19.93,19.93,0,0,0,3.71,0,15.88,15.88,0,0,1,3,0c3.44.44,6.2,3.46,9,6.78l7.88,9.49a8.57,8.57,0,0,1,2,3.33c.38,2-1.52,3.91-3.51,4.75a8.46,8.46,0,0,1-.8.28,22.23,22.23,0,0,1-7,.31c-1-.06-2-.11-2.93-.13A66.93,66.93,0,0,0,87.32,84c-2.27.43-4.55.86-6.84,1.16-8.47,1.11-17.29.42-25.82-.26l-2.92-.23c-4.39-.34-8.94-.68-13-2C36.09,81.78,31.34,79.65,29.06,75.18Z"
  />
  <path
    fill="currentColor"
    d="M97.19,74.19a2.84,2.84,0,1,0-3.11-2.54A2.83,2.83,0,0,0,97.19,74.19Z"
  />
  <path
    fill="currentColor"
    d="M67.89,63a11.41,11.41,0,0,0,1.55,1.34,7.43,7.43,0,0,0,4.09,1.57,4.71,4.71,0,0,0,3.76-1.58c-3.21.36-7.86-3.15-6.51-6.76a3.7,3.7,0,0,1,.49-.92c1.53-2,4.83-1,6.78-.39l3.54,1.16a13.58,13.58,0,0,0-2.4-3A10.89,10.89,0,0,0,75.81,52c-3-1.17-7,.42-8.93,2.79a7.18,7.18,0,0,0-.95,1.42C64.77,58.74,66.36,61.14,67.89,63Zm2.38-3.56s0,.1.07.17C70.25,59.44,70.2,59.34,70.27,59.41Z"
  />
</svg>
