<svg xmlns="http://www.w3.org/2000/svg" viewBox="0 0 144 144">
  <path
    fill="currentColor"
    d="M72.87,139.24A65.45,65.45,0,1,1,138.31,73.8,65.51,65.51,0,0,1,72.87,139.24Zm0-126.39a60.95,60.95,0,1,0,60.94,61A61,61,0,0,0,72.87,12.85Z"
  />
  <path
    fill="currentColor"
    d="M69.27,54.06H58a2.25,2.25,0,1,1,0-4.49H69.27a2.25,2.25,0,0,1,0,4.49Z"
  />
  <path
    fill="currentColor"
    d="M91.25,102.62H54.48c-4.44,0-8.06-3.93-8.06-8.76V40.76C46.42,35.93,50,32,54.48,32H69.13a2.25,2.25,0,1,1,0,4.49H54.48c-1.93,0-3.56,2-3.56,4.27v53.1c0,2.31,1.63,4.27,3.56,4.27H91.25c1.94,0,3.57-2,3.57-4.27v-42a2.25,2.25,0,0,1,4.5,0V93.86C99.32,98.69,95.7,102.62,91.25,102.62Z"
  />
  <path
    fill="currentColor"
    d="M95.56,54.81H82.85c-4.44,0-8.06-3.93-8.06-8.76V35.22a2.25,2.25,0,0,1,4.5,0V46.05c0,2.31,1.63,4.27,3.56,4.27H95.56a2.25,2.25,0,1,1,0,4.49Z"
  />
  <path
    fill="currentColor"
    d="M87.76,77.64H58a2.25,2.25,0,1,1,0-4.49H87.76a2.25,2.25,0,1,1,0,4.49Z"
  />
  <path
    fill="currentColor"
    d="M87.76,66.36H58a2.25,2.25,0,0,1,0-4.5H87.76a2.25,2.25,0,0,1,0,4.5Z"
  />
  <path
    fill="currentColor"
    d="M87.76,89.43H58a2.25,2.25,0,1,1,0-4.49H87.76a2.25,2.25,0,1,1,0,4.49Z"
  />
  <path
    fill="currentColor"
    d="M96.92,54.06a2.24,2.24,0,0,1-1.44-.52L75.84,37.06a2.25,2.25,0,1,1,2.89-3.45L98.37,50.09a2.25,2.25,0,0,1-1.45,4Z"
  />
</svg>
