<svg xmlns="http://www.w3.org/2000/svg" viewBox="0 0 100 100">
  <path fill="none" stroke="currentColor" stroke-linecap="round" stroke-width="5" d="M20 28c0 18.636 14.667 33.545 22 41"/>
  <path fill="none" stroke="currentColor" stroke-linecap="round" stroke-linejoin="round" stroke-width="5" d="M57 82l2 2"/>
  <path fill="none" stroke="currentColor" stroke-linecap="round" stroke-width="5" d="M80 28c0 18.667-15.2 33.6-22.8 41.067L42 84"/>
  <path d="M30 27.5a2.5 2.5 0 000 5v-5zm40 5a2.5 2.5 0 000-5v5zm-36.768 7.732a2.5 2.5 0 003.536 3.536l-3.536-3.536zm30 3.536a2.5 2.5 0 003.536-3.536l-3.536 3.536zM42 51.5a2.5 2.5 0 000 5v-5zm16 5a2.5 2.5 0 000-5v5zm-28-24h40v-5H30v5zm5 9.5c1.768 1.768 1.767 1.768 1.767 1.769l-.002.001-.002.003a.153.153 0 01-.01.01l-.006.005.02-.019a5.46 5.46 0 01.848-.599c.623-.355 1.444-.67 2.385-.67v-5c-2.06 0-3.738.685-4.865 1.33-.57.325-1.02.652-1.337.905a8.41 8.41 0 00-.554.485l-.006.007a.075.075 0 01-.004.004c-.001 0-.002.001 1.766 1.769zm5 .5c.94 0 1.762.315 2.385.67a5.46 5.46 0 01.848.6l.02.018-.005-.005a.176.176 0 01-.007-.006l-.004-.004-.002-.003-.002-.001L45 42c1.768-1.768 1.767-1.768 1.766-1.77l-.004-.003a.395.395 0 00-.021-.021 4.107 4.107 0 00-.157-.147 8.41 8.41 0 00-.382-.324c-.317-.253-.768-.58-1.337-.906C43.738 38.185 42.06 37.5 40 37.5v5zm5-.5c-1.768 1.768-1.767 1.768-1.766 1.77l.004.003a.395.395 0 00.021.021 4.107 4.107 0 00.157.147c.095.085.222.196.382.324.317.253.768.58 1.337.906C46.262 45.815 47.94 46.5 50 46.5v-5c-.94 0-1.762-.315-2.385-.67a5.46 5.46 0 01-.848-.6 1.026 1.026 0 01-.008-.007l.004.004.002.003.002.001L45 42zm5 4.5c2.06 0 3.738-.685 4.865-1.33.57-.325 1.02-.652 1.337-.905a8.41 8.41 0 00.554-.485l.006-.007a.075.075 0 01.004-.004c.001 0 .002-.001-1.766-1.769s-1.767-1.768-1.767-1.769l.002-.001.002-.003a.153.153 0 01.01-.01l.006-.005-.02.019a5.46 5.46 0 01-.848.599c-.623.355-1.444.67-2.385.67v5zm5-4.5c1.768 1.768 1.767 1.768 1.767 1.769l-.002.001-.002.003a.153.153 0 01-.01.01l-.006.005.02-.019a5.46 5.46 0 01.848-.599c.623-.355 1.444-.67 2.385-.67v-5c-2.06 0-3.738.685-4.865 1.33-.57.325-1.02.652-1.337.905a8.41 8.41 0 00-.554.485l-.006.007a.075.075 0 01-.004.004c-.001 0-.002.001 1.766 1.769zm5 .5c.94 0 1.762.315 2.385.67a5.46 5.46 0 01.848.6l.02.018-.005-.005a.176.176 0 01-.007-.006l-.004-.004-.002-.003-.002-.001L65 42c1.768-1.768 1.767-1.768 1.766-1.77a.075.075 0 01-.004-.003l-.006-.007a1.134 1.134 0 00-.055-.053 8.41 8.41 0 00-.499-.432c-.317-.253-.768-.58-1.337-.906C63.738 38.185 62.06 37.5 60 37.5v5zm-18 14h16v-5H42v5z"/>
</svg>
