<svg xmlns="http://www.w3.org/2000/svg" viewBox="0 0 144 144">
  <path
    fill="currentColor"
    d="M72.87,134.5a65.45,65.45,0,1,1,65.44-65.44A65.52,65.52,0,0,1,72.87,134.5Zm0-126.39a60.95,60.95,0,1,0,60.94,61A61,61,0,0,0,72.87,8.11Z"
  />
  <path
    fill="currentColor"
    d="M83.33,71.7c.5.89,1.47,3.37,2.83,3.25a1,1,0,0,0,.78-.78,2.24,2.24,0,0,0-.49-1.84c-1.22-1.94-1.63-3.13,1.21-2.3a42.74,42.74,0,0,0,5.7,1.19c.81.12,2.91.54,3.48-.33,1.21-1.87-3.68-2.37-4.58-2.57-.68-.16-6.58-.91-6.67-1.33,0-.18-.07-.35-.11-.53,2.22-1.57,4.68-3.16,6.07-5.56a.83.83,0,0,0,.16-.47c0-.36-.42-.56-.76-.65-.84-.23-1.11,0-1.71.61a31.82,31.82,0,0,1-5.19,3.79,1.41,1.41,0,0,1-1.31,0c-2.14-2.14-4.27-4.31-6.26-6.59a4,4,0,0,1-.79-2.43c-.09-3.22,0-6.45,0-9.67,0-8.08.12-16.16.1-24.24a4.33,4.33,0,0,0-.91-2.64A3.44,3.44,0,0,0,69,21.19q.15,16.89.14,33.78a4.65,4.65,0,0,1-.94,2.8c-1.51,1.78-3.24,3.36-4.77,5.12s-3.11.47-4.78-.41c-2.2-1.14-4.65-1.86-6.59-3.4-.83-.67-1.78-1.77-3-1.6a1,1,0,0,0-.8,1.74c.56.82,2.12,1.43,3,1.92.6.36,9.14,4.65,7.53,5.77a2.79,2.79,0,0,1-1.15.33,10.67,10.67,0,0,0-1.9.58A25.86,25.86,0,0,0,49,71.16a10.2,10.2,0,0,0-3.06,3.28c-.18.37-.32.86,0,1.16,1,1,1.62-.29,2.19-.88a11.88,11.88,0,0,1,3.44-2.06A33.18,33.18,0,0,1,60,69.55c-.58.11-1.11,3.6-1.19,4.14-.17,1.2-.11,2.4-.28,3.63a.58.58,0,0,0,.1.53A.53.53,0,0,0,59,78c.41,0,.9,0,1.09-.35a1,1,0,0,0,.08-.39A10.46,10.46,0,0,1,61,72.83c.74-1.4,1.78-2.62,2.48-4a3.84,3.84,0,0,1,.65-.89c2.41-2.34,4.87-4.63,7.25-7,.78-.77,1.29-.8,2.06,0a70,70,0,0,0,6.46,6.21A13.79,13.79,0,0,1,83.33,71.7Z"
  />
  <path
    fill="currentColor"
    d="M112.9,74.9A49.3,49.3,0,0,0,96.38,47.43a20.64,20.64,0,0,0-9.87-5.06A5.68,5.68,0,0,0,79.76,46a13.78,13.78,0,0,0-.52,1.69c-1,4.47-1.45,10.09,2,11.48l1.1.45.2-1.17a29.31,29.31,0,0,0,.27-5.61c0-.89,0-1.78,0-2.67a10.27,10.27,0,0,1,.77-3.11,1.39,1.39,0,0,1,1.67-1,12.39,12.39,0,0,1,6.32,2.49,43.77,43.77,0,0,1,16.54,23.12,61.33,61.33,0,0,1,2.62,16.9,57.36,57.36,0,0,1-1.34,15.62,13.54,13.54,0,0,1-2.07,5c-.47.64-.81.71-1.53.32a2.68,2.68,0,0,1-.51-.36,46,46,0,0,0-12.52-7.49,49.77,49.77,0,0,1-6.41-3.37,4.74,4.74,0,0,1-2.38-5c.3-2.16.52-4.06.66-5.81.26-3.15-.06-8.86-2-11.73C82,75,81.32,74,80.38,74.3s-1.47.93-.62,4.83a31.17,31.17,0,0,1,.45,12.93,8.78,8.78,0,0,0,3.67,9.41,37.69,37.69,0,0,0,7.31,3.89c3.41,1.5,6.94,3,9.9,5.52l.24.2c.67.56,1.35,1.13,2.08,1.63a5.56,5.56,0,0,0,3.12,1.07,4.83,4.83,0,0,0,4-2.33,14.64,14.64,0,0,0,1.6-3,40.18,40.18,0,0,0,2.33-11.74A77.35,77.35,0,0,0,112.9,74.9Z"
  />
  <path
    fill="currentColor"
    d="M65.77,89.83c-.06-.53-.14-1.06-.22-1.59a23.66,23.66,0,0,1-.35-3.86,22.4,22.4,0,0,1,.43-3.06,15.86,15.86,0,0,0,.42-4.88.89.89,0,0,1,0-.29A1.35,1.35,0,0,0,66,74.9a1.58,1.58,0,0,0-1.3-.54,2.94,2.94,0,0,0-3,1.84c-.64,1.38-.51,3.58-.4,5.51.05.74.09,1.42.08,2a29.79,29.79,0,0,0,.88,8.43c.65,2.48-.13,4.47-2.4,6.08l-.34.25a14,14,0,0,1-1.48,1c-1.44.81-2.89,1.63-4.38,2.35A41.8,41.8,0,0,0,42,109.6a3.93,3.93,0,0,1-.67.51c-.7.42-1,.28-1.38-.2a7.64,7.64,0,0,1-1.06-1.6A33.68,33.68,0,0,1,36,97.41a68.86,68.86,0,0,1-.54-12.69,55.5,55.5,0,0,1,2.49-15.2,44.86,44.86,0,0,1,13-19.9,16.41,16.41,0,0,1,6.85-3.9c1.68-.43,2.34-.09,2.92,1.48a9,9,0,0,1,.6,2.43c.09,1.12.16,2.24.23,3.35,0,.21,0,.41,0,.62a5.09,5.09,0,0,0,.59,2.75,1.24,1.24,0,0,0,.47.46L63,57l.26,0c.72,0,2.37-.39,2.27-3,0-1.27-.1-2.58-.28-3.88A20,20,0,0,0,64,45.25c-1.13-2.82-3.69-4.1-6.84-3.37a18.33,18.33,0,0,0-7.62,3.86A48.31,48.31,0,0,0,33.71,70.11a63,63,0,0,0-2.21,18,61.6,61.6,0,0,0,2.24,17.68,16.81,16.81,0,0,0,3.38,6.82,4.54,4.54,0,0,0,3.37,1.68,4.22,4.22,0,0,0,1.67-.36A9.64,9.64,0,0,0,45,112.08a33.46,33.46,0,0,1,7.81-5.53c1.34-.68,2.67-1.36,4-2.08a28.73,28.73,0,0,0,6.58-4.22,8,8,0,0,0,2.9-6A18.77,18.77,0,0,0,66,91.29C65.91,90.81,65.83,90.32,65.77,89.83Z"
  />
</svg>
