<svg xmlns="http://www.w3.org/2000/svg" viewBox="0 0 144 144">
  <path
    fill="currentColor"
    d="M112.14,109.14a2.25,2.25,0,0,1-2.25-2.25c0-7-7.7-16.59-14.91-25A2.25,2.25,0,1,1,98.4,79c9.87,11.53,16,20.23,16,27.94A2.25,2.25,0,0,1,112.14,109.14Z"
  />
  <path
    fill="currentColor"
    d="M85.91,70.14a2.26,2.26,0,0,1-1.73-.8C76,59.59,68.43,49.28,68.43,40a2.25,2.25,0,1,1,4.49,0c0,7.87,7.44,17.79,14.71,26.45a2.24,2.24,0,0,1-1.72,3.69Z"
  />
  <path
    fill="currentColor"
    d="M71.07,109.14a2.25,2.25,0,0,1-2.25-2.25c0-9.59,9.88-21,20.35-33S110.28,49.63,110.28,40a2.25,2.25,0,0,1,4.5,0c0,11.31-11.3,24.3-22.22,36.85C83.1,87.73,73.32,99,73.32,106.89A2.25,2.25,0,0,1,71.07,109.14Z"
  />
  <path
    fill="currentColor"
    d="M103.66,46.56H79.93a2.25,2.25,0,0,1,0-4.5h23.73a2.25,2.25,0,0,1,0,4.5Z"
  />
  <path
    fill="currentColor"
    d="M96.11,58.77H87.49a2.25,2.25,0,0,1,0-4.5h8.62a2.25,2.25,0,0,1,0,4.5Z"
  />
  <path
    fill="currentColor"
    d="M103.19,106.34H79.47a2.25,2.25,0,0,1,0-4.5h23.72a2.25,2.25,0,0,1,0,4.5Z"
  />
  <path
    fill="currentColor"
    d="M95.64,94.13H87a2.25,2.25,0,1,1,0-4.5h8.62a2.25,2.25,0,0,1,0,4.5Z"
  />
  <path
    fill="currentColor"
    d="M72.14,137.44A65.44,65.44,0,1,1,137.58,72,65.51,65.51,0,0,1,72.14,137.44Zm0-126.39a61,61,0,1,0,60.94,61A61,61,0,0,0,72.14,11.05Z"
  />
  <rect
    fill="currentColor"
    x="22.39"
    y="80.36"
    width="33.66"
    height="4.17"
    rx="2.09"
  />
  <path
    fill="currentColor"
    d="M23.12,67.58a2.09,2.09,0,0,1-.94-1.89c.16-2.78,4.63-4.24,6.85-4.83a10.22,10.22,0,0,1,6.07.33c2,.68,4,1.54,6,2.36a16.12,16.12,0,0,0,6.75,1.27,9.84,9.84,0,0,0,5-1.47,13.71,13.71,0,0,0,1.3-.84.91.91,0,0,1,1.07-.15,2.28,2.28,0,0,1,.76.69,1.47,1.47,0,0,1,.27.47,1.39,1.39,0,0,1,0,.64,3.33,3.33,0,0,1-.33.88,3,3,0,0,1-.9,1.11c-.46.3-.92.6-1.4.88a11.58,11.58,0,0,1-3,1.29,15.42,15.42,0,0,1-9.87-.78c-1.53-.65-3-1.39-4.56-2a11.22,11.22,0,0,0-11.83,1.93,1.16,1.16,0,0,1-.34.24.82.82,0,0,1-.65,0A1,1,0,0,1,23.12,67.58Z"
  />
  <rect
    fill="currentColor"
    x="22.33"
    y="71.72"
    width="33.69"
    height="3.99"
    rx="1.99"
  />
</svg>
