<svg xmlns="http://www.w3.org/2000/svg" viewBox="0 0 144 144">
  <path
    fill="currentColor"
    d="M72.6,135.66A65.45,65.45,0,1,1,138,70.22,65.52,65.52,0,0,1,72.6,135.66Zm0-126.39a60.95,60.95,0,1,0,60.94,61A61,61,0,0,0,72.6,9.27Z"
  />
  <path
    fill="currentColor"
    d="M93.13,106.27A2.25,2.25,0,0,1,90.88,104c0-7-7.69-16.59-14.9-25a2.25,2.25,0,1,1,3.41-2.93c9.87,11.54,16,20.23,16,27.94A2.25,2.25,0,0,1,93.13,106.27Z"
  />
  <path
    fill="currentColor"
    d="M66.9,67.28a2.24,2.24,0,0,1-1.72-.8C57,56.73,49.42,46.43,49.42,37.13a2.25,2.25,0,0,1,4.5,0c0,7.88,7.43,17.79,14.71,26.46a2.25,2.25,0,0,1-.28,3.16A2.22,2.22,0,0,1,66.9,67.28Z"
  />
  <path
    fill="currentColor"
    d="M52.06,106.27A2.25,2.25,0,0,1,49.81,104c0-9.59,9.89-21,20.35-33s21.11-24.26,21.11-33.9a2.25,2.25,0,0,1,4.5,0c0,11.32-11.29,24.3-22.21,36.86-9.47,10.87-19.25,22.12-19.25,30A2.25,2.25,0,0,1,52.06,106.27Z"
  />
  <path
    fill="currentColor"
    d="M84.66,43.7H60.93a2.25,2.25,0,1,1,0-4.5H84.66a2.25,2.25,0,0,1,0,4.5Z"
  />
  <path
    fill="currentColor"
    d="M77.1,55.9H68.48a2.25,2.25,0,0,1,0-4.5H77.1a2.25,2.25,0,0,1,0,4.5Z"
  />
  <path
    fill="currentColor"
    d="M84.19,103.47H60.46a2.25,2.25,0,0,1,0-4.5H84.19a2.25,2.25,0,0,1,0,4.5Z"
  />
  <path
    fill="currentColor"
    d="M76.63,91.27H68a2.25,2.25,0,0,1,0-4.5h8.61a2.25,2.25,0,0,1,0,4.5Z"
  />
  <path
    fill="currentColor"
    d="M32.84,66.82,43.3,77.28A1.14,1.14,0,0,0,45.14,77L53,59.55A1.13,1.13,0,0,0,51.6,58L33.24,65A1.13,1.13,0,0,0,32.84,66.82Z"
  />
</svg>
