<svg xmlns="http://www.w3.org/2000/svg" viewBox="0 0 100 100">
  <circle class="category" cx="50" cy="50" r="55" />
  <path
    class="category"
    d="M75 72C41.25 49.619 45 25 60 25s18.75 24.619-15 47"
  />
  <path
    class="category"
    d="M13.232 43.232a2.5 2.5 0 003.536 3.536l-3.536-3.536zm23.536 3.536a2.5 2.5 0 00-3.536-3.536l3.536 3.536zM15 45c1.768 1.768 1.767 1.768 1.767 1.769l-.002.001-.002.003-.004.004a.176.176 0 01-.012.01l.02-.018a5.46 5.46 0 01.848-.599c.623-.355 1.444-.67 2.385-.67v-5c-2.06 0-3.738.685-4.865 1.33-.57.325-1.02.652-1.337.905a8.41 8.41 0 00-.56.492l-.003.003h-.001c-.001.002-.002.002 1.766 1.77zm5 .5c.94 0 1.762.315 2.385.67a5.46 5.46 0 01.848.6l.02.018-.005-.005a.176.176 0 01-.007-.006l-.004-.004-.002-.003-.002-.001L25 45c1.768-1.768 1.767-1.768 1.766-1.77l-.004-.003a.395.395 0 00-.021-.021 4.107 4.107 0 00-.157-.147 8.41 8.41 0 00-.382-.324c-.317-.253-.768-.58-1.337-.906C23.738 41.185 22.06 40.5 20 40.5v5zm5-.5c-1.768 1.768-1.767 1.768-1.766 1.77l.004.003a.395.395 0 00.021.021 4.107 4.107 0 00.157.147c.095.085.222.196.382.324.317.253.768.58 1.337.906C26.262 48.815 27.94 49.5 30 49.5v-5c-.94 0-1.762-.315-2.385-.67a5.46 5.46 0 01-.848-.6 1.026 1.026 0 01-.008-.007l.004.004.002.003.002.001L25 45zm5 4.5c2.06 0 3.738-.685 4.865-1.33.57-.325 1.02-.652 1.337-.905a8.41 8.41 0 00.554-.485l.006-.007a.075.075 0 01.004-.004c.001 0 .002-.001-1.766-1.769s-1.767-1.768-1.767-1.769l.002-.001.002-.003a.153.153 0 01.01-.01l.006-.005-.02.019a5.46 5.46 0 01-.848.599c-.623.355-1.444.67-2.385.67v5zM13.232 53.232a2.5 2.5 0 003.536 3.536l-3.536-3.536zm23.536 3.536a2.5 2.5 0 00-3.536-3.536l3.536 3.536zM15 55c1.768 1.768 1.767 1.768 1.767 1.769l-.002.001-.002.003-.004.004a.176.176 0 01-.012.01l.02-.018a5.46 5.46 0 01.848-.599c.623-.355 1.444-.67 2.385-.67v-5c-2.06 0-3.738.685-4.865 1.33-.57.325-1.02.652-1.337.905a8.41 8.41 0 00-.56.492l-.003.003h-.001c-.001.002-.002.002 1.766 1.77zm5 .5c.94 0 1.762.315 2.385.67a5.46 5.46 0 01.848.6l.02.018-.005-.005a.176.176 0 01-.007-.006l-.004-.004-.002-.003-.002-.001L25 55c1.768-1.768 1.767-1.768 1.766-1.77l-.004-.003a.395.395 0 00-.021-.021 4.107 4.107 0 00-.157-.147 8.41 8.41 0 00-.382-.324c-.317-.253-.768-.58-1.337-.906C23.738 51.185 22.06 50.5 20 50.5v5zm5-.5c-1.768 1.768-1.767 1.768-1.766 1.77l.004.003a.395.395 0 00.021.021 4.107 4.107 0 00.157.147c.095.085.222.196.382.324.317.253.768.58 1.337.906C26.262 58.815 27.94 59.5 30 59.5v-5c-.94 0-1.762-.315-2.385-.67a5.46 5.46 0 01-.848-.6 1.026 1.026 0 01-.008-.007l.004.004.002.003.002.001L25 55zm5 4.5c2.06 0 3.738-.685 4.865-1.33.57-.325 1.02-.652 1.337-.905a8.41 8.41 0 00.554-.485l.006-.007a.075.075 0 01.004-.004c.001 0 .002-.001-1.766-1.769s-1.767-1.768-1.767-1.769l.002-.001.002-.003a.153.153 0 01.01-.01l.006-.005-.02.019a5.46 5.46 0 01-.848.599c-.623.355-1.444.67-2.385.67v5z"
  />
</svg>
