<svg xmlns="http://www.w3.org/2000/svg" viewBox="0 0 144 144">
  <path
    fill="currentColor"
    d="M72.14,137.44A65.44,65.44,0,1,1,137.58,72,65.51,65.51,0,0,1,72.14,137.44Zm0-126.38A60.94,60.94,0,1,0,133.08,72,61,61,0,0,0,72.14,11.06Z"
  />
  <path
    fill="currentColor"
    d="M32.13,100.93c-.44-.11-.89-.19-1.33-.32a11.29,11.29,0,0,1-1.5-.57,3.92,3.92,0,0,1-1.94-3.6c.15-3.09,3.65-4.26,6.21-3.28a3,3,0,0,1,1.1,4.76,2.88,2.88,0,0,0-.34.78c.3.09.64.33.89.26a4.67,4.67,0,0,0,1.72-.75,9.74,9.74,0,0,0,3.21-5q2.2-7.95,4.29-15.93c2-7.52,3.86-15.06,5.79-22.6.06-.24.1-.48.18-.83h-5.3l1.24-4.44c.85-.08,1.66-.13,2.47-.24a4,4,0,0,0,2.88-1.58,30.43,30.43,0,0,0,1.84-2.83c2.09-3.68,4.36-7.21,7.65-9.94A17,17,0,0,1,75.6,30.93a4.86,4.86,0,0,1,3.91,6.58,3.84,3.84,0,0,1-5.05,2.33,3.23,3.23,0,0,1-1.77-4.5c.23-.51.55-1,.77-1.5.35-.85,0-1.43-.95-1.44a4.8,4.8,0,0,0-3.23,1.42,19.12,19.12,0,0,0-4.52,6.34A48.37,48.37,0,0,0,61.71,49a1.42,1.42,0,0,0,0,.36h5.48c-.44,1.48-.84,2.88-1.29,4.25,0,.15-.41.26-.63.27-1.38,0-2.77,0-4.15,0-.54,0-.74.16-.87.69-1.87,7.36-3.73,14.73-5.67,22.08a70,70,0,0,1-4,11.51,24.48,24.48,0,0,1-6.87,9.32,15.41,15.41,0,0,1-8.14,3.3,3,3,0,0,0-.51.15Z"
  />
  <path
    fill="currentColor"
    d="M78.72,102.13a2,2,0,0,1-1.41-.59,40.5,40.5,0,0,1,0-57.31,2,2,0,0,1,2.83,2.83,36.49,36.49,0,0,0,0,51.65,2,2,0,0,1-1.42,3.42Z"
  />
  <path
    fill="currentColor"
    d="M107.15,102.13a2,2,0,0,1-1.42-3.42,36.49,36.49,0,0,0,0-51.65,2,2,0,0,1,2.83-2.83,40.5,40.5,0,0,1,0,57.31A2,2,0,0,1,107.15,102.13Z"
  />
  <path
    fill="currentColor"
    d="M96,77.12a1.61,1.61,0,0,0-1.21.39,1.67,1.67,0,0,0-.58,1.13,1.65,1.65,0,0,0,.4,1.21c3.66,4.29,7.57,9.14,7.57,12.59a1.66,1.66,0,0,0,3.32,0c0-4.13-3.2-8.71-8.37-14.75A1.65,1.65,0,0,0,96,77.12Z"
  />
  <path
    fill="currentColor"
    d="M90.35,74a1.65,1.65,0,0,0,1.27-2.72c-3.7-4.41-7.48-9.43-7.48-13.34a1.66,1.66,0,1,0-3.32,0c0,5,4,10.37,8.25,15.47A1.65,1.65,0,0,0,90.35,74Z"
  />
  <path
    fill="currentColor"
    d="M105.75,57.91a1.67,1.67,0,0,0-3.33,0C102.42,62.7,97,69,91.64,75.09,86.18,81.37,81,87.31,81,92.44a1.66,1.66,0,1,0,3.32,0c0-3.89,5-9.63,9.82-15.18C99.86,70.71,105.75,63.94,105.75,57.91Z"
  />
  <path
    fill="currentColor"
    d="M87.26,61.8H99.51a1.66,1.66,0,0,0,0-3.32H87.26a1.66,1.66,0,0,0,0,3.32Z"
  />
  <path
    fill="currentColor"
    d="M91.16,64.78a1.66,1.66,0,0,0,0,3.32h4.45a1.66,1.66,0,1,0,0-3.32Z"
  />
  <path
    fill="currentColor"
    d="M99.27,89.33H87a1.67,1.67,0,0,0,0,3.33H99.27a1.67,1.67,0,0,0,0-3.33Z"
  />
  <path
    fill="currentColor"
    d="M89.26,84.7a1.66,1.66,0,0,0,1.66,1.66h4.45a1.67,1.67,0,0,0,0-3.33H90.92A1.66,1.66,0,0,0,89.26,84.7Z"
  />
</svg>
